<svg width="280" height="121" viewBox="0 0 280 121" fill="none" xmlns="http://www.w3.org/2000/svg">
<path d="M203.125 62.9136C203.125 53.6769 210.529 46.0432 219.995 46.0432H225.491V55.7379H219.995C216.331 55.7379 212.819 58.7914 212.819 62.9136V91.0817H203.125V62.9136Z" fill="white"/>
<path d="M176.969 91.3497C164.145 91.3497 153.763 80.9679 153.763 67.9907C153.763 54.5555 163.763 44.7844 176.969 44.7844C188.42 44.7844 196.054 53.1814 196.97 60.5097L178.649 72.2656L174.069 65.3953L185.214 58.525C183.763 55.7005 180.71 53.8685 177.046 53.8685C169.412 53.8685 163.076 59.8227 163.076 67.7617C163.076 75.319 169.412 81.8076 176.893 82.113C181.397 82.342 185.672 80.1282 188.573 76.6931L195.672 82.9527C190.634 89.5939 182.084 91.3497 176.969 91.3497Z" fill="#D7FF63"/>
<path d="M103.208 65.777C103.208 53.3341 112.903 44.7844 124.811 44.7844C136.796 44.7844 146.491 53.3341 146.491 65.777V90.5863H136.949V65.777C136.949 59.0593 131.376 54.3265 124.811 54.3265C118.246 54.3265 112.75 59.0593 112.75 65.777V90.5863H103.208V65.777Z" fill="white"/>
<path d="M88.2999 41.731C85.0938 41.731 82.3457 39.0592 82.3457 35.7004C82.3457 32.418 85.0938 29.8225 88.2999 29.8225C91.5061 29.8225 94.2542 32.418 94.2542 35.7004C94.2542 39.0592 91.5061 41.731 88.2999 41.731ZM83.5671 90.5863V45.5478H93.1091V90.5863H83.5671Z" fill="white"/>
<path d="M39 90.5863V37.1508H48.8474V82.1893H76.7866V90.5863H39Z" fill="white"/>
<path d="M157.364 59.1674L183.727 49.4168L188.421 66.0291L162.341 82.8935L157.364 59.1674Z" fill="#D7FF63"/>
<ellipse cx="233.649" cy="83.3511" rx="7.13714" ry="7.46155" fill="#D7FF63"/>
<ellipse cx="233.649" cy="83.3511" rx="7.13714" ry="7.46155" fill="url(#paint0_linear_175_1697)"/>
<defs>
<linearGradient id="paint0_linear_175_1697" x1="233.802" y1="83.6394" x2="238.682" y2="91.7785" gradientUnits="userSpaceOnUse">
<stop stop-color="#D6FF63"/>
<stop offset="1" stop-color="#31323B" stop-opacity="0"/>
</linearGradient>
</defs>
</svg>
